<svg width="130" height="43" viewBox="0 0 130 43" fill="none" xmlns="http://www.w3.org/2000/svg">
<g clip-path="url(#clip0_2_52)">
<path d="M0 42.2942V-0.138916H14.835C17.791 -0.138916 20.2289 0.372161 22.1489 1.39431C24.0689 2.40265 25.4985 3.76322 26.4378 5.47601C27.3771 7.17499 27.8467 9.06045 27.8467 11.1324C27.8467 12.9557 27.5221 14.4613 26.8729 15.6492C26.2375 16.8371 25.3949 17.7764 24.3452 18.467C23.3092 19.1576 22.1834 19.6687 20.9679 20.0002V20.4146C22.2663 20.4975 23.5716 20.9533 24.8839 21.7821C26.1961 22.6109 27.2942 23.7988 28.1782 25.3458C29.0622 26.8928 29.5043 28.7852 29.5043 31.0229C29.5043 33.1501 29.0208 35.0632 28.0539 36.7621C27.087 38.4611 25.5607 39.8079 23.4749 40.8024C21.3892 41.7969 18.675 42.2942 15.3323 42.2942H0ZM5.13838 37.7359H15.3323C18.6888 37.7359 21.0715 37.0867 22.4804 35.7883C23.9031 34.4761 24.6145 32.8876 24.6145 31.0229C24.6145 29.5864 24.2485 28.2603 23.5164 27.0448C22.7843 25.8154 21.7414 24.8347 20.3878 24.1026C19.0341 23.3568 17.4318 22.9838 15.5809 22.9838H5.13838V37.7359ZM5.13838 18.5084H14.6692C16.2163 18.5084 17.6114 18.2046 18.8545 17.5968C20.1115 16.989 21.106 16.1326 21.8381 15.0276C22.584 13.9226 22.957 12.6242 22.957 11.1324C22.957 9.26764 22.3078 7.68607 21.0093 6.38766C19.7109 5.07544 17.6528 4.41933 14.835 4.41933H5.13838V18.5084Z" fill="#CF4B44"/>
<path d="M55.451 -0.138916H61.5839L76.0045 35.0839H76.5018L90.9224 -0.138916H97.0553V42.2942H92.2484V10.055H91.8341L78.5737 42.2942H73.9326L60.6723 10.055H60.2579V42.2942H55.451V-0.138916Z" fill="#CF4B44"/>
<path d="M130 -0.138916V42.2942H124.862V-0.138916H130Z" fill="#CF4B44"/>
</g>
<g clip-path="url(#clip1_2_52)">
<path d="M0 42.4331V0H14.835C17.791 0 20.2289 0.511077 22.1489 1.53323C24.0689 2.54157 25.4985 3.90213 26.4378 5.61493C27.3771 7.3139 27.8467 9.19936 27.8467 11.2713C27.8467 13.0946 27.5221 14.6002 26.8729 15.7881C26.2375 16.976 25.3949 17.9153 24.3452 18.6059C23.3092 19.2966 22.1834 19.8076 20.9679 20.1391V20.5535C22.2663 20.6364 23.5716 21.0922 24.8839 21.921C26.1961 22.7498 27.2942 23.9377 28.1782 25.4847C29.0622 27.0318 29.5043 28.9241 29.5043 31.1618C29.5043 33.289 29.0208 35.2021 28.0539 36.901C27.087 38.6 25.5607 39.9468 23.4749 40.9413C21.3892 41.9358 18.675 42.4331 15.3323 42.4331H0ZM5.13838 37.8748H15.3323C18.6888 37.8748 21.0715 37.2256 22.4804 35.9272C23.9031 34.615 24.6145 33.0265 24.6145 31.1618C24.6145 29.7253 24.2485 28.3992 23.5164 27.1837C22.7843 25.9543 21.7414 24.9736 20.3878 24.2416C19.0341 23.4957 17.4318 23.1227 15.5809 23.1227H5.13838V37.8748ZM5.13838 18.6474H14.6692C16.2163 18.6474 17.6114 18.3435 18.8545 17.7357C20.1115 17.1279 21.106 16.2715 21.8381 15.1665C22.584 14.0615 22.957 12.7631 22.957 11.2713C22.957 9.40655 22.3078 7.82498 21.0093 6.52657C19.7109 5.21435 17.6528 4.55824 14.835 4.55824H5.13838V18.6474Z" fill="#BF4497"/>
<path d="M55.451 0H61.5839L76.0045 35.2228H76.5018L90.9224 0H97.0553V42.4331H92.2484V10.1939H91.8341L78.5737 42.4331H73.9326L60.6723 10.1939H60.2579V42.4331H55.451V0Z" fill="#BF4497"/>
<path d="M130 0V42.4331H124.862V0H130Z" fill="#BF4497"/>
</g>
<g clip-path="url(#clip2_2_52)">
<path d="M0 42.4331V0H14.835C17.791 0 20.2289 0.511077 22.1489 1.53323C24.0689 2.54157 25.4985 3.90213 26.4378 5.61493C27.3771 7.31391 27.8467 9.19936 27.8467 11.2713C27.8467 13.0946 27.5221 14.6002 26.8729 15.7881C26.2375 16.976 25.3949 17.9153 24.3452 18.6059C23.3092 19.2966 22.1834 19.8076 20.9679 20.1391V20.5535C22.2663 20.6364 23.5716 21.0922 24.8839 21.921C26.1961 22.7498 27.2942 23.9377 28.1782 25.4847C29.0622 27.0318 29.5043 28.9241 29.5043 31.1618C29.5043 33.289 29.0208 35.2021 28.0539 36.901C27.087 38.6 25.5607 39.9468 23.4749 40.9413C21.3892 41.9358 18.675 42.4331 15.3323 42.4331H0ZM5.13838 37.8748H15.3323C18.6888 37.8748 21.0715 37.2256 22.4804 35.9272C23.9031 34.615 24.6145 33.0265 24.6145 31.1618C24.6145 29.7253 24.2485 28.3992 23.5164 27.1837C22.7843 25.9544 21.7414 24.9736 20.3878 24.2416C19.0341 23.4957 17.4318 23.1227 15.5809 23.1227H5.13838V37.8748ZM5.13838 18.6474H14.6692C16.2163 18.6474 17.6114 18.3435 18.8545 17.7357C20.1115 17.1279 21.106 16.2715 21.8381 15.1665C22.584 14.0615 22.957 12.7631 22.957 11.2713C22.957 9.40656 22.3078 7.82498 21.0093 6.52657C19.7109 5.21435 17.6528 4.55824 14.835 4.55824H5.13838V18.6474Z" fill="#6A3B85"/>
<path d="M55.451 0H61.5839L76.0045 35.2228H76.5018L90.9224 0H97.0553V42.4331H92.2484V10.1939H91.8341L78.5737 42.4331H73.9326L60.6723 10.1939H60.2579V42.4331H55.451V0Z" fill="#6A3B85"/>
<path d="M130 0V42.4331H124.862V0H130Z" fill="#6A3B85"/>
</g>
<defs>
<clipPath id="clip0_2_52">
<rect width="130" height="14.1441" fill="white" transform="translate(0 28.147)"/>
</clipPath>
<clipPath id="clip1_2_52">
<rect width="130" height="14.1441" fill="white" transform="translate(0 14.1429)"/>
</clipPath>
<clipPath id="clip2_2_52">
<rect width="130" height="14.1441" fill="white"/>
</clipPath>
</defs>
</svg>
